<?xml version="1.0" encoding="UTF-8" standalone="no"?>
<!-- Created with Inkscape (http://www.inkscape.org/) -->

<svg
   xmlns:dc="http://purl.org/dc/elements/1.1/"
   xmlns:cc="http://creativecommons.org/ns#"
   xmlns:rdf="http://www.w3.org/1999/02/22-rdf-syntax-ns#"
   xmlns:svg="http://www.w3.org/2000/svg"
   xmlns="http://www.w3.org/2000/svg"
   xmlns:sodipodi="http://sodipodi.sourceforge.net/DTD/sodipodi-0.dtd"
   xmlns:inkscape="http://www.inkscape.org/namespaces/inkscape"
   version="1.1"
   width="74.015625"
   height="96.746872"
   id="svg2"
   xml:space="preserve"
   inkscape:version="0.91pre2+osxmenu r12811"
   sodipodi:docname="logo.svg"><sodipodi:namedview
     pagecolor="#ffffff"
     bordercolor="#666666"
     borderopacity="1"
     objecttolerance="10"
     gridtolerance="10"
     guidetolerance="10"
     inkscape:pageopacity="0"
     inkscape:pageshadow="2"
     inkscape:window-width="1343"
     inkscape:window-height="847"
     id="namedview3544"
     showgrid="false"
     inkscape:zoom="4"
     inkscape:cx="60.724614"
     inkscape:cy="35.78619"
     inkscape:window-x="10"
     inkscape:window-y="22"
     inkscape:window-maximized="0"
     inkscape:current-layer="layer1"
     fit-margin-top="0"
     fit-margin-left="0"
     fit-margin-right="0"
     fit-margin-bottom="0" /><metadata
     id="metadata8"><rdf:RDF><cc:Work
         rdf:about=""><dc:format>image/svg+xml</dc:format><dc:type
           rdf:resource="http://purl.org/dc/dcmitype/StillImage" /><dc:title></dc:title></cc:Work></rdf:RDF></metadata><defs
     id="defs6" /><g
     inkscape:groupmode="layer"
     id="layer1"
     inkscape:label="Logo"
     style="display:inline;opacity:1"
     sodipodi:insensitive="true"
     transform="translate(-0.8014626,-0.6207981)"><path
       d="m 74.796462,0.6282981 -27.272499,6.675625 -19.623125,0 -27.0781254,-6.675625 -0.02125,-0.0075 4.485,79.8001249 32.5231254,16.94675 32.525624,-16.94675 4.481875,-79.8001249 -0.02062,0.0075"
       inkscape:connector-curvature="0"
       id="path42-2"
       style="fill:#ffffff;fill-opacity:1;fill-rule:nonzero;stroke:none" /><path
       d="m 69.905186,6.8046233 -23.510101,5.8410027 -16.916002,0 L 6.1365411,6.8046233 6.1182157,6.7982331 9.9844839,76.621217 38.020856,91.449163 66.059383,76.621217 69.922957,6.7982331 l -0.01778,0.00639"
       inkscape:connector-curvature="0"
       id="path42"
       style="fill:#000000;fill-opacity:1;fill-rule:nonzero;stroke:none" /><path
       d="m 55.565282,66.607098 -8.574375,6.34175 2.3675,-13.427437 7.47375,-2.068875 -1.266875,9.154562 z m -12.03875,8.328625 -10.993125,0 -2.665625,-15.099375 16.324375,0 -2.665625,15.099375 z m -23.03125,-8.328625 -1.2725,-9.154562 7.475625,2.068875 2.374375,13.427437 -8.5775,-6.34175 z m 27.306875,-9.838875 -19.549375,0 -12.708125,-3.51125 2.103125,15.048125 13.0925,9.69625 14.576875,0 13.10375,-9.69625 2.095,-15.048125 -12.71375,3.51125"
       inkscape:connector-curvature="0"
       id="path46"
       style="fill:#ffffff;fill-opacity:1;fill-rule:nonzero;stroke:none" /><path
       d="m 51.117782,43.049473 0,-6.652625 3.041875,1.785188 0,13.647937 6.35625,-1.762937 0,-20.895688 -15.75375,-9.275625 -9.4625,0 0,23.15375 6.36,0 0,-12.23 3.099375,1.83 0,10.4 6.35875,0"
       inkscape:connector-curvature="0"
       id="path48"
       style="fill:#ffffff;fill-opacity:1;fill-rule:nonzero;stroke:none" /><path
       d="m 25.858407,37.935723 0,0.246313 -3.07125,0 0,-7.308813 3.07125,-1.80375 0,8.86625 z m 5.423125,-18.04 -15.753125,9.275625 0,20.921813 6.3675,1.758812 0,-8.788125 10.345,0 0,-23.168125 -0.959375,0"
       inkscape:connector-curvature="0"
       id="path50"
       style="fill:#ffffff;fill-opacity:1;fill-rule:nonzero;stroke:none" /></g><g
     inkscape:groupmode="layer"
     id="layer4"
     inkscape:label="Border"
     style="display:inline"
     transform="translate(-0.8014626,-0.6207981)"><path
       inkscape:connector-curvature="0"
       id="path5075"
       d="M 65.297032,77.491982 37.984403,91.813324 10.640842,77.430121 6.8053195,7.8030247 27.065537,12.783009 l 21.683073,0 20.476739,-5.0109215 z"
       style="display:inline;fill:none;fill-rule:evenodd;stroke:#ffffff;stroke-width:1.44373834;stroke-linecap:butt;stroke-linejoin:miter;stroke-miterlimit:4;stroke-dasharray:none;stroke-opacity:1" /></g><g
     inkscape:groupmode="layer"
     id="layer5"
     inkscape:label="Border 1"
     style="display:inline"
     sodipodi:insensitive="true"
     transform="translate(-0.8014626,-0.6207981)"><path
       inkscape:connector-curvature="0"
       id="path5075-6"
       d="M 66.52838,78.336304 37.970913,93.160563 9.381107,78.27227 5.3707739,6.2001165 26.554395,11.354983 l 22.671328,0 21.410018,-5.1868902 z"
       style="display:inline;fill:none;fill-opacity:1;fill-rule:evenodd;stroke:#000000;stroke-width:1.50196958;stroke-linecap:butt;stroke-linejoin:miter;stroke-miterlimit:4;stroke-dasharray:none;stroke-opacity:1" /></g></svg>